<?xml version="1.0" encoding="UTF-8" standalone="no"?>
<svg
   xmlns:dc="http://purl.org/dc/elements/1.1/"
   xmlns:cc="http://creativecommons.org/ns#"
   xmlns:rdf="http://www.w3.org/1999/02/22-rdf-syntax-ns#"
   xmlns:svg="http://www.w3.org/2000/svg"
   xmlns="http://www.w3.org/2000/svg"
   id="svg10616"
   version="1.1"
   viewBox="0 0 34.395833 17.991667"
   height="68"
   width="130">
  <defs
     id="defs10610" />
  <metadata
     id="metadata10613">
    <rdf:RDF>
      <cc:Work
         rdf:about="">
        <dc:format>image/svg+xml</dc:format>
        <dc:type
           rdf:resource="http://purl.org/dc/dcmitype/StillImage" />
        <dc:title></dc:title>
      </cc:Work>
    </rdf:RDF>
  </metadata>
  <g
     transform="translate(0,-279.00832)"
     id="layer1">
    <g
       transform="translate(-0.0472471,0.27113613)"
       id="g11276">
      <g
         id="g274"
         transform="matrix(0.33056503,0,0,-0.33056503,3.2610896,293.05951)">
        <path
           d="m 0,0 c -1.208,0 -2.081,-0.315 -2.618,-0.951 -0.531,-0.639 -0.797,-1.71 -0.797,-3.211 0,-1.284 0.249,-2.191 0.748,-2.715 0.499,-0.52 1.388,-0.781 2.667,-0.781 H 4.813 L 3.604,-9.706 h -3.75 c -1.122,0 -1.978,0.078 -2.57,0.235 -0.595,0.146 -1.184,0.411 -1.763,0.797 -0.689,0.466 -1.217,1.084 -1.586,1.854 -0.369,0.753 -0.553,1.674 -0.553,2.764 0,2.059 0.534,3.59 1.601,4.593 1.058,0.987 2.708,1.481 4.953,1.481 H 4.813 V 0 Z"
           style="fill:#211858;fill-opacity:1;fill-rule:nonzero;stroke:none"
           id="path276" />
      </g>
      <g
         id="g278"
         transform="matrix(0.33056503,0,0,-0.33056503,6.8889086,292.3926)">
        <path
           d="m 0,0 h 3.114 l 5.943,-11.724 h -3.26 l -1.284,2.779 h -6.05 l -1.244,-2.779 h -3.097 z m 1.446,-2.35 -2.023,-4.496 h 4.145 z"
           style="fill:#211858;fill-opacity:1;fill-rule:nonzero;stroke:none"
           id="path280" />
      </g>
      <g
         id="g282"
         transform="matrix(0.33056503,0,0,-0.33056503,10.133207,292.3926)">
        <path
           d="M 0,0 H 4.3 L 7.862,-8.992 11.39,0 h 4.285 v -11.724 h -2.61 v 9.131 L 9.479,-11.724 H 6.381 l -3.683,9.227 v -9.227 H 0 Z"
           style="fill:#211858;fill-opacity:1;fill-rule:nonzero;stroke:none"
           id="path284" />
      </g>
      <g
         id="g286"
         transform="matrix(0.33056503,0,0,-0.33056503,15.692781,294.21183)">
        <path
           d="m 0,0 c 0,2.01 0.575,3.51 1.723,4.496 1.132,0.982 2.882,1.472 5.245,1.472 2.364,0 4.111,-0.496 5.243,-1.489 1.123,-0.997 1.684,-2.529 1.684,-4.592 0,-2.077 -0.567,-3.613 -1.7,-4.612 C 11.063,-5.722 9.32,-6.22 6.968,-6.22 4.556,-6.22 2.796,-5.716 1.69,-4.708 0.562,-3.711 0,-2.142 0,0 M 6.968,3.968 C 5.71,3.968 4.771,3.634 4.153,2.966 3.52,2.291 3.204,1.295 3.204,-0.018 c 0,-1.43 0.298,-2.483 0.899,-3.161 0.598,-0.677 1.553,-1.017 2.865,-1.017 1.274,0 2.222,0.34 2.845,1.017 0.613,0.678 0.919,1.698 0.919,3.066 0,1.365 -0.306,2.387 -0.919,3.065 C 9.19,3.628 8.242,3.968 6.968,3.968"
           style="fill:#211858;fill-opacity:1;fill-rule:nonzero;stroke:none"
           id="path288" />
      </g>
      <g
         id="g290"
         transform="matrix(0.33056503,0,0,-0.33056503,20.669174,292.3926)">
        <path
           d="M 0,0 H 3.7 L 9.399,-8.422 V 0 h 2.862 V -11.724 H 8.863 l -5.992,8.863 v -8.863 H 0 Z"
           style="fill:#211858;fill-opacity:1;fill-rule:nonzero;stroke:none"
           id="path292" />
      </g>
      <g
         id="g294"
         transform="matrix(0.33056503,0,0,-0.33056503,33.196761,293.0884)">
        <path
           d="m 0,0 h -7.227 c -0.798,0 -1.367,-0.119 -1.711,-0.359 -0.367,-0.232 -0.55,-0.62 -0.55,-1.162 0,-0.413 0.153,-0.729 0.463,-0.951 0.336,-0.211 0.796,-0.318 1.381,-0.318 h 3.863 c 1.61,0 2.755,-0.254 3.431,-0.763 0.678,-0.527 1.016,-1.383 1.016,-2.57 0,-1.197 -0.387,-2.078 -1.162,-2.643 -0.793,-0.569 -2.024,-0.853 -3.7,-0.853 h -7.788 v 2.082 h 7.34 c 0.848,0 1.431,0.105 1.749,0.316 0.342,0.2 0.512,0.54 0.512,1.016 0,0.468 -0.154,0.816 -0.464,1.049 -0.33,0.201 -0.864,0.301 -1.601,0.301 h -3.455 c -1.599,0 -2.774,0.272 -3.52,0.813 -0.744,0.548 -1.115,1.398 -1.115,2.555 0,1.219 0.383,2.129 1.148,2.73 0.4,0.287 0.9,0.502 1.502,0.642 0.596,0.148 1.334,0.221 2.212,0.221 H 0 Z"
           style="fill:#211858;fill-opacity:1;fill-rule:nonzero;stroke:none"
           id="path296" />
      </g>
      <g
         id="g298"
         transform="matrix(0.33056503,0,0,-0.33056503,28.537514,294.63471)">
        <path
           d="M 0,0 H -7.283 V -2.773 H 0.676 V -4.94 H -9.591 c 0,0 -0.5,-0.051 -0.5,0.531 V 6.192 c 0,0.572 0.528,0.55 0.528,0.55 H 0.349 V 4.575 H -7.283 V 2.149 H 0 Z"
           style="fill:#211858;fill-opacity:1;fill-rule:nonzero;stroke:none"
           id="path300" />
      </g>
      <g
         id="g302"
         transform="matrix(0.33056503,0,0,-0.33056503,22.902107,290.35496)">
        <path
           d="m 0,0 h -4.168 v -1.307 h 4.487 v -1.019 h -5.574 c 0,0 -0.234,-0.024 -0.234,0.25 v 4.992 c 0,0.271 0.248,0.259 0.248,0.259 H 0.164 V 2.154 H -4.168 V 1.013 H 0 Z"
           style="fill:#004c99;fill-opacity:1;fill-rule:nonzero;stroke:none"
           id="path304" />
      </g>
      <g
         id="g306"
         transform="matrix(0.33056503,0,0,-0.33056503,13.280515,290.35496)">
        <path
           d="m 0,0 h -4.167 v -1.307 h 4.486 v -1.019 h -5.573 c 0,0 -0.235,-0.024 -0.235,0.25 v 4.992 c 0,0.271 0.249,0.259 0.249,0.259 H 0.165 V 2.154 H -4.167 V 1.013 H 0 Z"
           style="fill:#004c99;fill-opacity:1;fill-rule:nonzero;stroke:none"
           id="path308" />
      </g>
      <g
         id="g310"
         transform="matrix(0.33056503,0,0,-0.33056503,9.8365566,289.6215)">
        <path
           d="M 0,0 H -2.35 V 0.96 H 3.953 V 0 H 1.584 V -4.545 H 0 Z"
           style="fill:#004c99;fill-opacity:1;fill-rule:nonzero;stroke:none"
           id="path312" />
      </g>
      <g
         id="g314"
         transform="matrix(0.33056503,0,0,-0.33056503,14.329034,290.21196)">
        <path
           d="m 0,0 -2.474,2.76 h 1.807 L 0.821,1.009 2.321,2.76 H 4.083 L 1.741,0.08 4.25,-2.759 H 2.423 l -1.536,1.921 -1.615,-1.921 h -1.829 z"
           style="fill:#004c99;fill-opacity:1;fill-rule:nonzero;stroke:none"
           id="path316" />
      </g>
      <g
         id="g318"
         transform="matrix(0.33056503,0,0,-0.33056503,16.585374,289.6215)">
        <path
           d="M 0,0 H -2.349 V 0.96 H 3.955 V 0 H 1.586 V -4.545 H 0 Z"
           style="fill:#004c99;fill-opacity:1;fill-rule:nonzero;stroke:none"
           id="path320" />
      </g>
      <path
         d="m 18.786175,291.12395 h -0.528242 v -1.82438 h 0.528242 z"
         style="fill:#004c99;fill-opacity:1;fill-rule:nonzero;stroke:none;stroke-width:0.33056501"
         id="path322" />
      <g
         id="g324"
         transform="matrix(0.33056503,0,0,-0.33056503,20.194315,291.12392)">
        <path
           d="m 0,0 c -0.683,0 -1.185,0.045 -1.509,0.134 -0.332,0.085 -0.623,0.233 -0.877,0.448 -0.239,0.18 -0.408,0.393 -0.51,0.634 -0.107,0.24 -0.16,0.579 -0.16,1.02 v 3.282 h 1.534 V 2.273 c 0,-0.334 0.019,-0.564 0.06,-0.689 0.045,-0.131 0.101,-0.23 0.173,-0.3 C -1.214,1.216 -1.126,1.158 -1.031,1.113 -0.937,1.066 -0.839,1.028 -0.738,0.995 -0.503,0.941 -0.211,0.914 0.14,0.914 H 1.937 V 0 Z"
           style="fill:#004c99;fill-opacity:1;fill-rule:nonzero;stroke:none"
           id="path326" />
      </g>
      <g
         id="g328"
         transform="matrix(0.33056503,0,0,-0.33056503,25.318372,289.62765)">
        <path
           d="m 0,0 h -3.778 c -0.414,0 -0.713,-0.053 -0.9,-0.161 -0.19,-0.116 -0.284,-0.3 -0.284,-0.555 0,-0.194 0.08,-0.342 0.242,-0.447 0.175,-0.101 0.415,-0.149 0.716,-0.149 h 2.026 c 0.84,0 1.437,-0.121 1.791,-0.361 0.352,-0.239 0.527,-0.643 0.527,-1.208 0,-0.571 -0.2,-0.985 -0.605,-1.244 -0.403,-0.268 -1.046,-0.401 -1.928,-0.401 h -4.074 v 0.978 h 3.826 c 0.443,0 0.749,0.05 0.919,0.149 0.18,0.095 0.272,0.254 0.272,0.479 0,0.22 -0.083,0.384 -0.244,0.494 -0.169,0.094 -0.447,0.142 -0.838,0.142 h -1.804 c -0.835,0 -1.45,0.124 -1.849,0.375 -0.383,0.262 -0.576,0.665 -0.576,1.209 0,0.578 0.207,1.008 0.616,1.285 0.409,0.27 1.054,0.407 1.936,0.407 H 0 Z"
           style="fill:#004c99;fill-opacity:1;fill-rule:nonzero;stroke:none"
           id="path330" />
      </g>
      <g
         id="g332"
         transform="matrix(0.33056503,0,0,-0.33056503,17.918443,287.62264)">
        <path
           d="m 0,0 -7.604,7.6 3.724,3.721 7.601,-7.6 z"
           style="fill:#004c99;fill-opacity:1;fill-rule:nonzero;stroke:none"
           id="path334" />
      </g>
      <g
         id="g336"
         transform="matrix(0.33056503,0,0,-0.33056503,16.902054,282.73679)">
        <path
           d="m 0,0 -7.6,-7.604 -3.721,3.723 7.6,7.602 z"
           style="fill:#211858;fill-opacity:1;fill-rule:nonzero;stroke:none"
           id="path338" />
      </g>
      <g
         id="g340"
         transform="matrix(0.33056503,0,0,-0.33056503,17.587546,283.95591)">
        <path
           d="M 0,0 7.601,7.601 11.324,3.878 3.723,-3.723 Z"
           style="fill:#211858;fill-opacity:1;fill-rule:nonzero;stroke:none"
           id="path342" />
      </g>
      <g
         id="g344"
         transform="matrix(0.33056503,0,0,-0.33056503,16.698689,279.19789)">
        <path
           d="m 0,0 7.603,-7.6 -3.723,-3.721 -7.601,7.6 z"
           style="fill:#004c99;fill-opacity:1;fill-rule:nonzero;stroke:none"
           id="path346" />
      </g>
    </g>
  </g>
</svg>
